<svg id="regular" enable-background="new 0 0 24 24" height="512" viewBox="0 0 24 24" width="512" xmlns="http://www.w3.org/2000/svg"><g><g><path d="m21.27 12.36c.58.73.91 1.62.91 2.57 0 1.95-1.38 3.6-3.3 4.18.05.23.08.47.08.72 0 1.88-1.68 3.42-3.75 3.42-1.37 0-2.56-.67-3.21-1.67v-19.16c.65-.99 1.84-1.67 3.21-1.67 2.07 0 3.75 1.54 3.75 3.42 0 .35-.05.68-.16.99.05-.01.11-.01.16-.01 2.37 0 4.29 1.75 4.29 3.92 0 1.38-.79 2.6-1.98 3.29z" fill="#ef9a9a"/></g><g><path d="m11.96.75c-4.57 0-8.29 3.73-8.29 8.32h.01c0 .7-.2 1.38-.57 1.97l-2.28 3.96c-.05.07-.08.16-.08.26 0 .27.21.49.49.49h2.51v3.03c0 .81.65 1.47 1.46 1.47.15 0 .29-.02.43-.07l3.11-.84v3.91h3.25v-22.5z" fill="#ffcc80"/></g><g><path d="m13.75 17.375c-1.379 0-2.5-1.121-2.5-2.5 0-.414.336-.75.75-.75s.75.336.75.75c0 .552.448 1 1 1s1-.448 1-1c0-.414.336-.75.75-.75s.75.336.75.75c0 1.379-1.121 2.5-2.5 2.5z"/></g><g><path d="m18.804 5.912c-.081 0-.162-.013-.243-.04-.392-.135-.601-.562-.467-.953.08-.231.12-.482.12-.745 0-1.475-1.346-2.674-3-2.674-1.057 0-2.048.511-2.586 1.334-.228.346-.69.444-1.039.217-.347-.228-.443-.692-.217-1.039.825-1.26 2.261-2.012 3.842-2.012 2.481 0 4.5 1.872 4.5 4.174 0 .429-.067.843-.2 1.231-.108.312-.399.507-.71.507z"/></g><g><path d="m15.214 24c-1.581 0-3.017-.752-3.842-2.012-.227-.347-.13-.812.217-1.039.349-.226.812-.129 1.039.217.538.823 1.529 1.334 2.586 1.334 1.654 0 3-1.199 3-2.674 0-.177-.022-.363-.064-.539-.093-.387.133-.778.514-.893 1.654-.498 2.766-1.889 2.766-3.46 0-.766-.258-1.493-.747-2.104-.136-.17-.191-.392-.151-.605.04-.215.171-.4.358-.511 1.009-.59 1.611-1.58 1.611-2.649 0-1.744-1.586-3.163-3.536-3.163-.768 0-1.393.541-1.393 1.206 0 .654.638 1.207 1.393 1.207.414 0 .75.336.75.75s-.336.75-.75.75c-1.595 0-2.893-1.215-2.893-2.707s1.298-2.706 2.893-2.706c2.776 0 5.035 2.092 5.035 4.663 0 1.353-.623 2.611-1.698 3.489.412.727.627 1.536.627 2.38 0 2.032-1.271 3.842-3.221 4.674.004.073.006.146.006.218 0 2.302-2.019 4.174-4.5 4.174z"/></g><g><path d="m12 24c-.414 0-.75-.336-.75-.75v-22.5c0-.414.336-.75.75-.75s.75.336.75.75v22.5c0 .414-.336.75-.75.75z"/></g><g><path d="m12 24h-3.25c-.414 0-.75-.336-.75-.75v-2.931l-2.165.584c-.152.059-.377.097-.625.097-1.219 0-2.21-.996-2.21-2.22v-2.28h-1.76c-.683 0-1.24-.557-1.24-1.24 0-.252.075-.492.218-.693l2.242-3.9c.292-.467.449-.972.468-1.488-.005-.036-.008-.073-.008-.109 0-5.001 4.056-9.07 9.04-9.07.414 0 .77.336.77.75s-.316.75-.73.75c-4.159 0-7.519 3.334-7.579 7.456.006.037.009.075.009.114 0 .836-.236 1.655-.684 2.368l-2.051 3.562h2.055c.414 0 .75.336.75.75v3.03c0 .396.318.72.71.72.093 0 .142-.014.174-.025l3.171-.858c.226-.061.465-.015.651.128.186.142.294.361.294.595v3.16h2.5c.414 0 .75.336.75.75s-.336.75-.75.75zm-10.519-8.628-.001.002v.001s0-.001.001-.003z"/></g></g></svg>