<svg id="bold" enable-background="new 0 0 24 24" height="512" viewBox="0 0 24 24" width="512" xmlns="http://www.w3.org/2000/svg"><path d="m7.25 24h-4.5c-.414 0-.75-.336-.75-.75v-4.5c0-.414.336-.75.75-.75h4.5c.414 0 .75.336.75.75v4.5c0 .414-.336.75-.75.75z"/><path d="m15.25 24h-4.5c-.414 0-.75-.336-.75-.75v-9.5c0-.414.336-.75.75-.75h4.5c.414 0 .75.336.75.75v9.5c0 .414-.336.75-.75.75z"/><path d="m23.25 24h-4.5c-.414 0-.75-.336-.75-.75v-14.5c0-.414.336-.75.75-.75h4.5c.414 0 .75.336.75.75v14.5c0 .414-.336.75-.75.75z"/><path d="m14.854.147c-.097-.096-.24-.151-.363-.147-2.827.053-6.125 1.703-8.219 4.1-2.266.081-4.156.764-5.335 1.943-.128.128-.177.315-.128.489s.188.308.365.351l2.129.51-.013.014c-.178.197-.17.5.018.688l3.597 3.597c.097.098.225.146.354.146.12 0 .239-.042.334-.128l.014-.013.51 2.129c.042.176.176.316.351.365.045.013.09.019.136.019.131 0 .258-.051.354-.146 1.18-1.18 1.862-3.07 1.943-5.336 2.4-2.101 4.047-5.395 4.1-8.219.001-.135-.051-.266-.147-.362z"/><path d="m1.716 10.347c-.671.671-1.53 3.458-1.695 4.01-.053.176-.004.367.125.497.096.095.223.146.354.146.048 0 .096-.007.144-.021.552-.165 3.338-1.023 4.01-1.695.81-.81.81-2.127 0-2.938-.812-.81-2.13-.809-2.938.001z"/></svg>