<svg height="512" viewBox="0 0 64 64" width="512" xmlns="http://www.w3.org/2000/svg"><g id="VR"><path d="m32 4a12.952 12.952 0 0 1 9.194 3.809l1.411-1.418a15 15 0 0 0 -21.21 0l1.411 1.418a12.952 12.952 0 0 1 9.194-3.809z"/><path d="m39.777 9.223a10.994 10.994 0 0 0 -15.554 0l1.414 1.414a9 9 0 0 1 12.726 0z"/><path d="m36.951 12.056a6.989 6.989 0 0 0 -9.9 0l1.421 1.408a4.988 4.988 0 0 1 7.06 0z"/><path d="m29 17a3 3 0 1 0 3-3 3 3 0 0 0 -3 3zm4 0a1 1 0 1 1 -1-1 1 1 0 0 1 1 1z"/><path d="m58 39.43v-.43a5 5 0 0 0 -5-5v-29a3 3 0 0 0 -6 0v29h-8a.984.984 0 0 0 -.6.2l-3.73 2.8h-5.34l-3.73-2.8a.984.984 0 0 0 -.6-.2h-8v-12h5a4 4 0 0 0 0-8h-16a4 4 0 0 0 0 8h5v12a5 5 0 0 0 -5 5v.43a8.192 8.192 0 0 0 -4 7.04v3.06a8.192 8.192 0 0 0 4 7.04v.43a5 5 0 0 0 5 5h14a1.033 1.033 0 0 0 .71-.29l3.7-3.71h5.18l3.7 3.71a1.033 1.033 0 0 0 .71.29h14a5 5 0 0 0 5-5v-.43a8.192 8.192 0 0 0 4-7.04v-3.06a8.192 8.192 0 0 0 -4-7.04zm-52 14.68a6.2 6.2 0 0 1 -2-4.58v-3.06a6.2 6.2 0 0 1 2-4.58zm43-49.11a1 1 0 0 1 2 0v29h-2zm-43 15a2 2 0 0 1 0-4h16a2 2 0 0 1 0 4zm9 2v12h-2v-12zm41 35a3.009 3.009 0 0 1 -3 3h-13.59l-3.7-3.71a1.033 1.033 0 0 0 -.71-.29h-6a1.033 1.033 0 0 0 -.71.29l-3.7 3.71h-13.59a3.009 3.009 0 0 1 -3-3v-18a3.009 3.009 0 0 1 3-3h13.67l3.73 2.8a.984.984 0 0 0 .6.2h6a.984.984 0 0 0 .6-.2l3.73-2.8h13.67a3.009 3.009 0 0 1 3 3zm4-7.47a6.2 6.2 0 0 1 -2 4.58v-12.22a6.2 6.2 0 0 1 2 4.58z"/><path d="m44 56h10v2h-10z"/><path d="m40 56h2v2h-2z"/><path d="m46 38h8v2h-8z"/><path d="m40 38h4v2h-4z"/><path d="m10 56h10v2h-10z"/><path d="m22 56h2v2h-2z"/><path d="m10 38h8v2h-8z"/><path d="m20 38h4v2h-4z"/><path d="m51 42h-38a3 3 0 0 0 -3 3v6a3 3 0 0 0 3 3h38a3 3 0 0 0 3-3v-6a3 3 0 0 0 -3-3zm1 9a1 1 0 0 1 -1 1h-38a1 1 0 0 1 -1-1v-6a1 1 0 0 1 1-1h38a1 1 0 0 1 1 1z"/></g></svg>