<svg id="Layer_5" enable-background="new 0 0 64 64" height="512" viewBox="0 0 64 64" width="512" xmlns="http://www.w3.org/2000/svg"><g><path d="m19 60c0 1.105.895 2 2 2s2-.895 2-2v-25.04c-1.392-.11-2.739-.453-4-.986z"/><path d="m41 60c0 1.105.895 2 2 2s2-.895 2-2v-26.026c-1.261.533-2.608.876-4 .986z"/><path d="m24 29h1v-4h11c.552 0 1-.449 1-1s-.448-1-1-1h-11v-6h11c.552 0 1-.449 1-1s-.448-1-1-1h-11v-6h11c.552 0 1-.449 1-1s-.448-1-1-1h-11v-4h-1c-6.065 0-11 4.935-11 11v2 2c0 6.065 4.935 11 11 11zm-4-16c1.654 0 3 1.346 3 3s-1.346 3-3 3-3-1.346-3-3 1.346-3 3-3z"/><path d="m40 31h-16c-4.163 0-7.865-1.974-10.246-5.027 1.598 4.105 5.582 7.027 10.246 7.027h16c4.664 0 8.648-2.922 10.246-7.027-2.381 3.053-6.083 5.027-10.246 5.027z"/><circle cx="20" cy="16" r="1"/><circle cx="44" cy="16" r="1"/><path d="m40 3h-13v2h9c1.654 0 3 1.346 3 3s-1.346 3-3 3h-9v2h9c1.654 0 3 1.346 3 3s-1.346 3-3 3h-9v2h9c1.654 0 3 1.346 3 3s-1.346 3-3 3h-9v2h13c6.065 0 11-4.935 11-11v-2-2c0-6.065-4.935-11-11-11zm4 16c-1.654 0-3-1.346-3-3s1.346-3 3-3 3 1.346 3 3-1.346 3-3 3z"/></g></svg>